<mxfile host="app.diagrams.net" modified="2023-05-24T03:01:45.708Z" agent="Mozilla/5.0 (Macintosh; Intel Mac OS X 10_15_7) AppleWebKit/537.36 (KHTML, like Gecko) Chrome/112.0.0.0 Safari/537.36" etag="w7uLpk4hhQ8sOF44Ktqt" version="21.2.1" type="github">
  <diagram id="R2lEEEUBdFMjLlhIrx00" name="Page-1">
    <mxGraphModel dx="3130" dy="1287" grid="1" gridSize="10" guides="1" tooltips="1" connect="1" arrows="1" fold="1" page="1" pageScale="1" pageWidth="850" pageHeight="1100" math="0" shadow="0" extFonts="Permanent Marker^https://fonts.googleapis.com/css?family=Permanent+Marker">
      <root>
        <mxCell id="0" />
        <mxCell id="1" parent="0" />
        <mxCell id="zcm2E6uYJEaqn9uGI2z3-111" value="" style="edgeStyle=entityRelationEdgeStyle;endArrow=ERzeroToMany;startArrow=ERone;endFill=1;startFill=0;entryX=0;entryY=0.208;entryDx=0;entryDy=0;entryPerimeter=0;" edge="1" parent="1" source="zcm2E6uYJEaqn9uGI2z3-120" target="zcm2E6uYJEaqn9uGI2z3-116">
          <mxGeometry width="100" height="100" relative="1" as="geometry">
            <mxPoint x="365" y="760" as="sourcePoint" />
            <mxPoint x="465" y="660" as="targetPoint" />
          </mxGeometry>
        </mxCell>
        <mxCell id="zcm2E6uYJEaqn9uGI2z3-112" value="Game" style="shape=table;startSize=30;container=1;collapsible=1;childLayout=tableLayout;fixedRows=1;rowLines=0;fontStyle=1;align=center;resizeLast=1;" vertex="1" parent="1">
          <mxGeometry x="475" y="230" width="250" height="130" as="geometry" />
        </mxCell>
        <mxCell id="zcm2E6uYJEaqn9uGI2z3-113" value="" style="shape=partialRectangle;collapsible=0;dropTarget=0;pointerEvents=0;fillColor=none;points=[[0,0.5],[1,0.5]];portConstraint=eastwest;top=0;left=0;right=0;bottom=1;" vertex="1" parent="zcm2E6uYJEaqn9uGI2z3-112">
          <mxGeometry y="30" width="250" height="30" as="geometry" />
        </mxCell>
        <mxCell id="zcm2E6uYJEaqn9uGI2z3-114" value="PK" style="shape=partialRectangle;overflow=hidden;connectable=0;fillColor=none;top=0;left=0;bottom=0;right=0;fontStyle=1;" vertex="1" parent="zcm2E6uYJEaqn9uGI2z3-113">
          <mxGeometry width="30" height="30" as="geometry">
            <mxRectangle width="30" height="30" as="alternateBounds" />
          </mxGeometry>
        </mxCell>
        <mxCell id="zcm2E6uYJEaqn9uGI2z3-115" value="order_idÂ int NOT NULL " style="shape=partialRectangle;overflow=hidden;connectable=0;fillColor=none;top=0;left=0;bottom=0;right=0;align=left;spacingLeft=6;fontStyle=5;" vertex="1" parent="zcm2E6uYJEaqn9uGI2z3-113">
          <mxGeometry x="30" width="220" height="30" as="geometry">
            <mxRectangle width="220" height="30" as="alternateBounds" />
          </mxGeometry>
        </mxCell>
        <mxCell id="zcm2E6uYJEaqn9uGI2z3-116" value="" style="shape=partialRectangle;collapsible=0;dropTarget=0;pointerEvents=0;fillColor=none;points=[[0,0.5],[1,0.5]];portConstraint=eastwest;top=0;left=0;right=0;bottom=0;" vertex="1" parent="zcm2E6uYJEaqn9uGI2z3-112">
          <mxGeometry y="60" width="250" height="60" as="geometry" />
        </mxCell>
        <mxCell id="zcm2E6uYJEaqn9uGI2z3-117" value="FK1" style="shape=partialRectangle;overflow=hidden;connectable=0;fillColor=none;top=0;left=0;bottom=0;right=0;" vertex="1" parent="zcm2E6uYJEaqn9uGI2z3-116">
          <mxGeometry width="30" height="60" as="geometry">
            <mxRectangle width="30" height="60" as="alternateBounds" />
          </mxGeometry>
        </mxCell>
        <mxCell id="zcm2E6uYJEaqn9uGI2z3-118" value="players_id [] NOT NULL&#xa;dices_id [] NOT NULL&#xa;board_id int NOT NULL" style="shape=partialRectangle;overflow=hidden;connectable=0;fillColor=none;top=0;left=0;bottom=0;right=0;align=left;spacingLeft=6;" vertex="1" parent="zcm2E6uYJEaqn9uGI2z3-116">
          <mxGeometry x="30" width="220" height="60" as="geometry">
            <mxRectangle width="220" height="60" as="alternateBounds" />
          </mxGeometry>
        </mxCell>
        <mxCell id="zcm2E6uYJEaqn9uGI2z3-119" value="Player (Mr. Fox)" style="shape=table;startSize=30;container=1;collapsible=1;childLayout=tableLayout;fixedRows=1;rowLines=0;fontStyle=1;align=center;resizeLast=1;" vertex="1" parent="1">
          <mxGeometry x="126" y="80" width="250" height="130" as="geometry" />
        </mxCell>
        <mxCell id="zcm2E6uYJEaqn9uGI2z3-120" value="" style="shape=partialRectangle;collapsible=0;dropTarget=0;pointerEvents=0;fillColor=none;points=[[0,0.5],[1,0.5]];portConstraint=eastwest;top=0;left=0;right=0;bottom=1;" vertex="1" parent="zcm2E6uYJEaqn9uGI2z3-119">
          <mxGeometry y="30" width="250" height="30" as="geometry" />
        </mxCell>
        <mxCell id="zcm2E6uYJEaqn9uGI2z3-121" value="PK" style="shape=partialRectangle;overflow=hidden;connectable=0;fillColor=none;top=0;left=0;bottom=0;right=0;fontStyle=1;" vertex="1" parent="zcm2E6uYJEaqn9uGI2z3-120">
          <mxGeometry width="30" height="30" as="geometry">
            <mxRectangle width="30" height="30" as="alternateBounds" />
          </mxGeometry>
        </mxCell>
        <mxCell id="zcm2E6uYJEaqn9uGI2z3-122" value="player_id int NOT NULL " style="shape=partialRectangle;overflow=hidden;connectable=0;fillColor=none;top=0;left=0;bottom=0;right=0;align=left;spacingLeft=6;fontStyle=5;" vertex="1" parent="zcm2E6uYJEaqn9uGI2z3-120">
          <mxGeometry x="30" width="220" height="30" as="geometry">
            <mxRectangle width="220" height="30" as="alternateBounds" />
          </mxGeometry>
        </mxCell>
        <mxCell id="zcm2E6uYJEaqn9uGI2z3-123" value="" style="shape=partialRectangle;collapsible=0;dropTarget=0;pointerEvents=0;fillColor=none;points=[[0,0.5],[1,0.5]];portConstraint=eastwest;top=0;left=0;right=0;bottom=0;" vertex="1" parent="zcm2E6uYJEaqn9uGI2z3-119">
          <mxGeometry y="60" width="250" height="70" as="geometry" />
        </mxCell>
        <mxCell id="zcm2E6uYJEaqn9uGI2z3-124" value="" style="shape=partialRectangle;overflow=hidden;connectable=0;fillColor=none;top=0;left=0;bottom=0;right=0;" vertex="1" parent="zcm2E6uYJEaqn9uGI2z3-123">
          <mxGeometry width="30" height="70" as="geometry">
            <mxRectangle width="30" height="70" as="alternateBounds" />
          </mxGeometry>
        </mxCell>
        <mxCell id="zcm2E6uYJEaqn9uGI2z3-125" value="food: int&#xa;family: FamilyMember []&#xa;Movimientos:&#xa;position: Tile" style="shape=partialRectangle;overflow=hidden;connectable=0;fillColor=none;top=0;left=0;bottom=0;right=0;align=left;spacingLeft=6;" vertex="1" parent="zcm2E6uYJEaqn9uGI2z3-123">
          <mxGeometry x="30" width="220" height="70" as="geometry">
            <mxRectangle width="220" height="70" as="alternateBounds" />
          </mxGeometry>
        </mxCell>
        <mxCell id="zcm2E6uYJEaqn9uGI2z3-126" value="Farmers" style="shape=table;startSize=30;container=1;collapsible=1;childLayout=tableLayout;fixedRows=1;rowLines=0;fontStyle=1;align=center;resizeLast=1;" vertex="1" parent="1">
          <mxGeometry x="126" y="220" width="250" height="120" as="geometry" />
        </mxCell>
        <mxCell id="zcm2E6uYJEaqn9uGI2z3-127" value="" style="shape=partialRectangle;collapsible=0;dropTarget=0;pointerEvents=0;fillColor=none;points=[[0,0.5],[1,0.5]];portConstraint=eastwest;top=0;left=0;right=0;bottom=1;" vertex="1" parent="zcm2E6uYJEaqn9uGI2z3-126">
          <mxGeometry y="30" width="250" height="30" as="geometry" />
        </mxCell>
        <mxCell id="zcm2E6uYJEaqn9uGI2z3-128" value="PK" style="shape=partialRectangle;overflow=hidden;connectable=0;fillColor=none;top=0;left=0;bottom=0;right=0;fontStyle=1;" vertex="1" parent="zcm2E6uYJEaqn9uGI2z3-127">
          <mxGeometry width="29" height="30" as="geometry">
            <mxRectangle width="29" height="30" as="alternateBounds" />
          </mxGeometry>
        </mxCell>
        <mxCell id="zcm2E6uYJEaqn9uGI2z3-129" value="farmers_id int NOT NULL " style="shape=partialRectangle;overflow=hidden;connectable=0;fillColor=none;top=0;left=0;bottom=0;right=0;align=left;spacingLeft=6;fontStyle=5;" vertex="1" parent="zcm2E6uYJEaqn9uGI2z3-127">
          <mxGeometry x="29" width="221" height="30" as="geometry">
            <mxRectangle width="221" height="30" as="alternateBounds" />
          </mxGeometry>
        </mxCell>
        <mxCell id="zcm2E6uYJEaqn9uGI2z3-130" value="" style="shape=partialRectangle;collapsible=0;dropTarget=0;pointerEvents=0;fillColor=none;points=[[0,0.5],[1,0.5]];portConstraint=eastwest;top=0;left=0;right=0;bottom=0;" vertex="1" parent="zcm2E6uYJEaqn9uGI2z3-126">
          <mxGeometry y="60" width="250" height="60" as="geometry" />
        </mxCell>
        <mxCell id="zcm2E6uYJEaqn9uGI2z3-131" value="" style="shape=partialRectangle;overflow=hidden;connectable=0;fillColor=none;top=0;left=0;bottom=0;right=0;" vertex="1" parent="zcm2E6uYJEaqn9uGI2z3-130">
          <mxGeometry width="29" height="60" as="geometry">
            <mxRectangle width="29" height="60" as="alternateBounds" />
          </mxGeometry>
        </mxCell>
        <mxCell id="zcm2E6uYJEaqn9uGI2z3-132" value="type char(50) NOT NULL&#xa;Traps []&#xa;position: Tile" style="shape=partialRectangle;overflow=hidden;connectable=0;fillColor=none;top=0;left=0;bottom=0;right=0;align=left;spacingLeft=6;" vertex="1" parent="zcm2E6uYJEaqn9uGI2z3-130">
          <mxGeometry x="29" width="221" height="60" as="geometry">
            <mxRectangle width="221" height="60" as="alternateBounds" />
          </mxGeometry>
        </mxCell>
        <mxCell id="zcm2E6uYJEaqn9uGI2z3-133" value="" style="edgeStyle=entityRelationEdgeStyle;endArrow=ERzeroToMany;startArrow=ERone;endFill=1;startFill=0;exitX=1;exitY=0.5;exitDx=0;exitDy=0;entryX=-0.012;entryY=0.4;entryDx=0;entryDy=0;entryPerimeter=0;" edge="1" parent="1" source="zcm2E6uYJEaqn9uGI2z3-127" target="zcm2E6uYJEaqn9uGI2z3-116">
          <mxGeometry width="100" height="100" relative="1" as="geometry">
            <mxPoint x="395" y="265" as="sourcePoint" />
            <mxPoint x="475" y="325" as="targetPoint" />
          </mxGeometry>
        </mxCell>
        <mxCell id="zcm2E6uYJEaqn9uGI2z3-146" value="" style="edgeStyle=entityRelationEdgeStyle;endArrow=ERzeroToMany;startArrow=ERone;endFill=1;startFill=0;entryX=1.004;entryY=0.933;entryDx=0;entryDy=0;entryPerimeter=0;" edge="1" parent="1" target="zcm2E6uYJEaqn9uGI2z3-116">
          <mxGeometry width="100" height="100" relative="1" as="geometry">
            <mxPoint x="750" y="480" as="sourcePoint" />
            <mxPoint x="810" y="290" as="targetPoint" />
          </mxGeometry>
        </mxCell>
        <mxCell id="zcm2E6uYJEaqn9uGI2z3-150" value="Trap" style="shape=table;startSize=30;container=1;collapsible=1;childLayout=tableLayout;fixedRows=1;rowLines=0;fontStyle=1;align=center;resizeLast=1;" vertex="1" parent="1">
          <mxGeometry x="-210" y="200" width="250" height="120" as="geometry" />
        </mxCell>
        <mxCell id="zcm2E6uYJEaqn9uGI2z3-151" value="" style="shape=partialRectangle;collapsible=0;dropTarget=0;pointerEvents=0;fillColor=none;points=[[0,0.5],[1,0.5]];portConstraint=eastwest;top=0;left=0;right=0;bottom=1;" vertex="1" parent="zcm2E6uYJEaqn9uGI2z3-150">
          <mxGeometry y="30" width="250" height="30" as="geometry" />
        </mxCell>
        <mxCell id="zcm2E6uYJEaqn9uGI2z3-152" value="PK" style="shape=partialRectangle;overflow=hidden;connectable=0;fillColor=none;top=0;left=0;bottom=0;right=0;fontStyle=1;" vertex="1" parent="zcm2E6uYJEaqn9uGI2z3-151">
          <mxGeometry width="29" height="30" as="geometry">
            <mxRectangle width="29" height="30" as="alternateBounds" />
          </mxGeometry>
        </mxCell>
        <mxCell id="zcm2E6uYJEaqn9uGI2z3-153" value="trap_id int NOT NULL " style="shape=partialRectangle;overflow=hidden;connectable=0;fillColor=none;top=0;left=0;bottom=0;right=0;align=left;spacingLeft=6;fontStyle=5;" vertex="1" parent="zcm2E6uYJEaqn9uGI2z3-151">
          <mxGeometry x="29" width="221" height="30" as="geometry">
            <mxRectangle width="221" height="30" as="alternateBounds" />
          </mxGeometry>
        </mxCell>
        <mxCell id="zcm2E6uYJEaqn9uGI2z3-154" value="" style="shape=partialRectangle;collapsible=0;dropTarget=0;pointerEvents=0;fillColor=none;points=[[0,0.5],[1,0.5]];portConstraint=eastwest;top=0;left=0;right=0;bottom=0;" vertex="1" parent="zcm2E6uYJEaqn9uGI2z3-150">
          <mxGeometry y="60" width="250" height="60" as="geometry" />
        </mxCell>
        <mxCell id="zcm2E6uYJEaqn9uGI2z3-155" value="" style="shape=partialRectangle;overflow=hidden;connectable=0;fillColor=none;top=0;left=0;bottom=0;right=0;" vertex="1" parent="zcm2E6uYJEaqn9uGI2z3-154">
          <mxGeometry width="29" height="60" as="geometry">
            <mxRectangle width="29" height="60" as="alternateBounds" />
          </mxGeometry>
        </mxCell>
        <mxCell id="zcm2E6uYJEaqn9uGI2z3-156" value="type char(50) NOT NULL&#xa;Traps []&#xa;position: Tile" style="shape=partialRectangle;overflow=hidden;connectable=0;fillColor=none;top=0;left=0;bottom=0;right=0;align=left;spacingLeft=6;" vertex="1" parent="zcm2E6uYJEaqn9uGI2z3-154">
          <mxGeometry x="29" width="221" height="60" as="geometry">
            <mxRectangle width="221" height="60" as="alternateBounds" />
          </mxGeometry>
        </mxCell>
        <mxCell id="zcm2E6uYJEaqn9uGI2z3-157" value="" style="edgeStyle=entityRelationEdgeStyle;endArrow=ERzeroToMany;startArrow=ERone;endFill=1;startFill=0;exitX=1;exitY=0.5;exitDx=0;exitDy=0;entryX=-0.012;entryY=0.666;entryDx=0;entryDy=0;entryPerimeter=0;" edge="1" parent="1" source="zcm2E6uYJEaqn9uGI2z3-151" target="zcm2E6uYJEaqn9uGI2z3-130">
          <mxGeometry width="100" height="100" relative="1" as="geometry">
            <mxPoint x="386" y="255" as="sourcePoint" />
            <mxPoint x="482" y="324" as="targetPoint" />
          </mxGeometry>
        </mxCell>
        <mxCell id="zcm2E6uYJEaqn9uGI2z3-158" value="FamilyMember" style="shape=table;startSize=30;container=1;collapsible=1;childLayout=tableLayout;fixedRows=1;rowLines=0;fontStyle=1;align=center;resizeLast=1;" vertex="1" parent="1">
          <mxGeometry x="-220" y="60" width="250" height="120" as="geometry" />
        </mxCell>
        <mxCell id="zcm2E6uYJEaqn9uGI2z3-159" value="" style="shape=partialRectangle;collapsible=0;dropTarget=0;pointerEvents=0;fillColor=none;points=[[0,0.5],[1,0.5]];portConstraint=eastwest;top=0;left=0;right=0;bottom=1;" vertex="1" parent="zcm2E6uYJEaqn9uGI2z3-158">
          <mxGeometry y="30" width="250" height="30" as="geometry" />
        </mxCell>
        <mxCell id="zcm2E6uYJEaqn9uGI2z3-160" value="PK" style="shape=partialRectangle;overflow=hidden;connectable=0;fillColor=none;top=0;left=0;bottom=0;right=0;fontStyle=1;" vertex="1" parent="zcm2E6uYJEaqn9uGI2z3-159">
          <mxGeometry width="29" height="30" as="geometry">
            <mxRectangle width="29" height="30" as="alternateBounds" />
          </mxGeometry>
        </mxCell>
        <mxCell id="zcm2E6uYJEaqn9uGI2z3-161" value="family_member_id int NOT NULL " style="shape=partialRectangle;overflow=hidden;connectable=0;fillColor=none;top=0;left=0;bottom=0;right=0;align=left;spacingLeft=6;fontStyle=5;" vertex="1" parent="zcm2E6uYJEaqn9uGI2z3-159">
          <mxGeometry x="29" width="221" height="30" as="geometry">
            <mxRectangle width="221" height="30" as="alternateBounds" />
          </mxGeometry>
        </mxCell>
        <mxCell id="zcm2E6uYJEaqn9uGI2z3-162" value="" style="shape=partialRectangle;collapsible=0;dropTarget=0;pointerEvents=0;fillColor=none;points=[[0,0.5],[1,0.5]];portConstraint=eastwest;top=0;left=0;right=0;bottom=0;" vertex="1" parent="zcm2E6uYJEaqn9uGI2z3-158">
          <mxGeometry y="60" width="250" height="60" as="geometry" />
        </mxCell>
        <mxCell id="zcm2E6uYJEaqn9uGI2z3-163" value="" style="shape=partialRectangle;overflow=hidden;connectable=0;fillColor=none;top=0;left=0;bottom=0;right=0;" vertex="1" parent="zcm2E6uYJEaqn9uGI2z3-162">
          <mxGeometry width="29" height="60" as="geometry">
            <mxRectangle width="29" height="60" as="alternateBounds" />
          </mxGeometry>
        </mxCell>
        <mxCell id="zcm2E6uYJEaqn9uGI2z3-164" value="name char(50) NOT NULL&#xa;isAvailable bool" style="shape=partialRectangle;overflow=hidden;connectable=0;fillColor=none;top=0;left=0;bottom=0;right=0;align=left;spacingLeft=6;" vertex="1" parent="zcm2E6uYJEaqn9uGI2z3-162">
          <mxGeometry x="29" width="221" height="60" as="geometry">
            <mxRectangle width="221" height="60" as="alternateBounds" />
          </mxGeometry>
        </mxCell>
        <mxCell id="zcm2E6uYJEaqn9uGI2z3-165" value="" style="edgeStyle=entityRelationEdgeStyle;endArrow=ERzeroToMany;startArrow=ERone;endFill=1;startFill=0;exitX=1;exitY=0.5;exitDx=0;exitDy=0;entryX=-0.006;entryY=0.677;entryDx=0;entryDy=0;entryPerimeter=0;" edge="1" parent="1" target="zcm2E6uYJEaqn9uGI2z3-123">
          <mxGeometry width="100" height="100" relative="1" as="geometry">
            <mxPoint x="30" y="100" as="sourcePoint" />
            <mxPoint x="113" y="155" as="targetPoint" />
          </mxGeometry>
        </mxCell>
        <mxCell id="zcm2E6uYJEaqn9uGI2z3-166" value="Board" style="shape=table;startSize=30;container=1;collapsible=1;childLayout=tableLayout;fixedRows=1;rowLines=0;fontStyle=1;align=center;resizeLast=1;" vertex="1" parent="1">
          <mxGeometry x="500" y="440" width="250" height="100" as="geometry" />
        </mxCell>
        <mxCell id="zcm2E6uYJEaqn9uGI2z3-167" value="" style="shape=partialRectangle;collapsible=0;dropTarget=0;pointerEvents=0;fillColor=none;points=[[0,0.5],[1,0.5]];portConstraint=eastwest;top=0;left=0;right=0;bottom=1;" vertex="1" parent="zcm2E6uYJEaqn9uGI2z3-166">
          <mxGeometry y="30" width="250" height="30" as="geometry" />
        </mxCell>
        <mxCell id="zcm2E6uYJEaqn9uGI2z3-168" value="PK" style="shape=partialRectangle;overflow=hidden;connectable=0;fillColor=none;top=0;left=0;bottom=0;right=0;fontStyle=1;" vertex="1" parent="zcm2E6uYJEaqn9uGI2z3-167">
          <mxGeometry width="30" height="30" as="geometry">
            <mxRectangle width="30" height="30" as="alternateBounds" />
          </mxGeometry>
        </mxCell>
        <mxCell id="zcm2E6uYJEaqn9uGI2z3-169" value="board_id int NOT NULL" style="shape=partialRectangle;overflow=hidden;connectable=0;fillColor=none;top=0;left=0;bottom=0;right=0;align=left;spacingLeft=6;fontStyle=5;" vertex="1" parent="zcm2E6uYJEaqn9uGI2z3-167">
          <mxGeometry x="30" width="220" height="30" as="geometry">
            <mxRectangle width="220" height="30" as="alternateBounds" />
          </mxGeometry>
        </mxCell>
        <mxCell id="zcm2E6uYJEaqn9uGI2z3-170" value="" style="shape=partialRectangle;collapsible=0;dropTarget=0;pointerEvents=0;fillColor=none;points=[[0,0.5],[1,0.5]];portConstraint=eastwest;top=0;left=0;right=0;bottom=0;" vertex="1" parent="zcm2E6uYJEaqn9uGI2z3-166">
          <mxGeometry y="60" width="250" height="30" as="geometry" />
        </mxCell>
        <mxCell id="zcm2E6uYJEaqn9uGI2z3-171" value="" style="shape=partialRectangle;overflow=hidden;connectable=0;fillColor=none;top=0;left=0;bottom=0;right=0;" vertex="1" parent="zcm2E6uYJEaqn9uGI2z3-170">
          <mxGeometry width="30" height="30" as="geometry">
            <mxRectangle width="30" height="30" as="alternateBounds" />
          </mxGeometry>
        </mxCell>
        <mxCell id="zcm2E6uYJEaqn9uGI2z3-172" value="Tiles []" style="shape=partialRectangle;overflow=hidden;connectable=0;fillColor=none;top=0;left=0;bottom=0;right=0;align=left;spacingLeft=6;" vertex="1" parent="zcm2E6uYJEaqn9uGI2z3-170">
          <mxGeometry x="30" width="220" height="30" as="geometry">
            <mxRectangle width="220" height="30" as="alternateBounds" />
          </mxGeometry>
        </mxCell>
        <mxCell id="zcm2E6uYJEaqn9uGI2z3-173" value="Tile" style="shape=table;startSize=30;container=1;collapsible=1;childLayout=tableLayout;fixedRows=1;rowLines=0;fontStyle=1;align=center;resizeLast=1;" vertex="1" parent="1">
          <mxGeometry x="500" y="600" width="250" height="90" as="geometry" />
        </mxCell>
        <mxCell id="zcm2E6uYJEaqn9uGI2z3-174" value="" style="shape=partialRectangle;collapsible=0;dropTarget=0;pointerEvents=0;fillColor=none;points=[[0,0.5],[1,0.5]];portConstraint=eastwest;top=0;left=0;right=0;bottom=1;" vertex="1" parent="zcm2E6uYJEaqn9uGI2z3-173">
          <mxGeometry y="30" width="250" height="30" as="geometry" />
        </mxCell>
        <mxCell id="zcm2E6uYJEaqn9uGI2z3-175" value="PK" style="shape=partialRectangle;overflow=hidden;connectable=0;fillColor=none;top=0;left=0;bottom=0;right=0;fontStyle=1;" vertex="1" parent="zcm2E6uYJEaqn9uGI2z3-174">
          <mxGeometry width="30" height="30" as="geometry">
            <mxRectangle width="30" height="30" as="alternateBounds" />
          </mxGeometry>
        </mxCell>
        <mxCell id="zcm2E6uYJEaqn9uGI2z3-176" value="tile_id: int NOT NULL" style="shape=partialRectangle;overflow=hidden;connectable=0;fillColor=none;top=0;left=0;bottom=0;right=0;align=left;spacingLeft=6;fontStyle=5;" vertex="1" parent="zcm2E6uYJEaqn9uGI2z3-174">
          <mxGeometry x="30" width="220" height="30" as="geometry">
            <mxRectangle width="220" height="30" as="alternateBounds" />
          </mxGeometry>
        </mxCell>
        <mxCell id="zcm2E6uYJEaqn9uGI2z3-177" value="" style="shape=partialRectangle;collapsible=0;dropTarget=0;pointerEvents=0;fillColor=none;points=[[0,0.5],[1,0.5]];portConstraint=eastwest;top=0;left=0;right=0;bottom=0;" vertex="1" parent="zcm2E6uYJEaqn9uGI2z3-173">
          <mxGeometry y="60" width="250" height="30" as="geometry" />
        </mxCell>
        <mxCell id="zcm2E6uYJEaqn9uGI2z3-178" value="" style="shape=partialRectangle;overflow=hidden;connectable=0;fillColor=none;top=0;left=0;bottom=0;right=0;" vertex="1" parent="zcm2E6uYJEaqn9uGI2z3-177">
          <mxGeometry width="30" height="30" as="geometry">
            <mxRectangle width="30" height="30" as="alternateBounds" />
          </mxGeometry>
        </mxCell>
        <mxCell id="zcm2E6uYJEaqn9uGI2z3-179" value="type: char(50) NOT NULL&#xa;Elements []" style="shape=partialRectangle;overflow=hidden;connectable=0;fillColor=none;top=0;left=0;bottom=0;right=0;align=left;spacingLeft=6;" vertex="1" parent="zcm2E6uYJEaqn9uGI2z3-177">
          <mxGeometry x="30" width="220" height="30" as="geometry">
            <mxRectangle width="220" height="30" as="alternateBounds" />
          </mxGeometry>
        </mxCell>
        <mxCell id="zcm2E6uYJEaqn9uGI2z3-180" value="" style="edgeStyle=entityRelationEdgeStyle;endArrow=ERzeroToMany;startArrow=ERone;endFill=1;startFill=0;entryX=1;entryY=0.5;entryDx=0;entryDy=0;" edge="1" parent="1" target="zcm2E6uYJEaqn9uGI2z3-174">
          <mxGeometry width="100" height="100" relative="1" as="geometry">
            <mxPoint x="750" y="520" as="sourcePoint" />
            <mxPoint x="725" y="362" as="targetPoint" />
          </mxGeometry>
        </mxCell>
      </root>
    </mxGraphModel>
  </diagram>
</mxfile>
